# xmcd CD database file
#
# Track frame offsets:
#	150
#	24486
#	61639
#	75436
#	88786
#	110261
#	131899
#	155319
#	177676
#	220041
#	253994
#
# Disc length: 3622 seconds
#
# Revision: 0
# Processed by: cddbd v1.5.2PL0 Copyright (c) Steve Scherf et al.
# Submitted via: CDex 1.51
#
DISCID=8e0e240b
DTITLE=Dave Brubeck - Greatest Hits
DYEAR=1900
DGENRE=Jazz
TTITLE0=Take Five
TTITLE1=Unsouare Dance
TTITLE2=Semeday ma Prince Willcome
TTITLE3=Trolley Song
TTITLE4=I'm in a Dancing Mood
TTITLE5=Kathy's Waltz
TTITLE6=When you wish upon a star
TTITLE7=It's a raggy Waltz
TTITLE8=Ine Song
TTITLE9=Give a little Wistle
TTITLE10=Heigh-ho
EXTD=
EXTT0=
EXTT1=
EXTT2=
EXTT3=
EXTT4=
EXTT5=
EXTT6=
EXTT7=
EXTT8=
EXTT9=
EXTT10=
PLAYORDER=
